<svg width="999" height="136" viewBox="0 0 999 136" fill="none" xmlns="http://www.w3.org/2000/svg">
<path d="M40.6551 75.6197L6.02727 13.664C4.77943 11.293 2.78287 9.9828 0.0375977 9.73323V1.6846C6.15206 2.30852 10.5819 5.11618 13.3272 10.1076L44.2115 67.1967L79.2136 3.3692H88.9469L48.3294 75.2453V131.586H40.6551V75.6197ZM97.1827 131.586L152.774 0H154.272L210.238 131.586H201.44L182.91 87.9734H124.136L105.793 131.586H97.1827ZM179.915 80.4863L160.261 33.3176C158.764 29.8236 157.292 25.9553 155.844 21.7126C154.422 17.4699 153.585 14.9118 153.336 14.0383L152.213 17.7819C150.591 24.0211 148.906 29.1997 147.159 33.3176L127.131 80.4863H179.915ZM324.416 125.596L327.561 131.773C325.963 132.771 323.855 133.27 321.234 133.27C316.093 133.27 311.913 131.087 308.693 126.719L286.045 95.4605C281.902 89.8451 277.934 85.8146 274.14 83.3688C270.347 80.948 265.829 79.4256 260.589 78.8017V71.8761H275.151C284.036 71.8761 291.211 69.0934 296.676 63.528C302.192 57.9876 304.95 50.6627 304.95 41.5534C304.95 32.6937 302.329 25.4187 297.088 19.7285C291.822 14.0633 285.209 11.2306 277.247 11.2306H244.678V131.773H236.78V3.74355H277.959C284.597 3.74355 290.562 5.36575 295.853 8.61016C301.169 11.8546 305.324 16.3094 308.319 21.9746C311.314 27.6648 312.811 34.1287 312.811 41.3662C312.811 51.4738 310.128 59.6846 304.762 65.9988C299.372 72.2879 292.197 75.7445 283.237 76.3684C278.994 76.618 275.675 76.7427 273.279 76.7427C276.549 77.2419 278.994 77.9282 280.617 78.8017C282.239 79.6752 283.923 81.235 285.67 83.4811C289.663 88.7221 294.655 95.3606 300.645 103.397C306.634 111.458 311.376 117.922 314.87 122.788C316.467 125.034 318.514 126.158 321.009 126.158C322.532 126.158 323.667 125.97 324.416 125.596ZM353.578 131.586V1.6846H354.701L444.172 112.868L449.413 119.981L448.103 109.686L447.729 3.3692H455.964V131.773H451.098L441.552 122.04L365.745 28.2638L360.691 19.0921L361.44 28.0766V131.586H353.578ZM495.084 131.586V3.55637H503.507V131.586H495.084ZM542.815 1.87177H543.75L600.278 73.3735L658.303 1.87177H659.239V131.586H651.377V45.8585C651.377 41.6158 651.652 36.3748 652.201 30.1356C652.775 23.8963 653.374 19.4041 653.998 16.6588C648.632 24.3955 640.334 35.4389 629.103 49.7892C617.873 64.1395 608.451 75.3701 600.84 83.4811L598.032 80.4863C588.174 70.2539 577.692 58.2746 566.586 44.5482C563.591 40.6799 560.347 36.2126 556.853 31.1463C553.359 26.105 550.426 21.463 548.056 17.2203C549.803 30.8219 550.676 40.3679 550.676 45.8585V131.586H542.815V1.87177ZM686.005 131.586L741.597 0H743.094L799.023 131.586H790.263L771.733 87.9734H712.921L694.578 131.586H686.005ZM768.738 80.4863L749.084 33.3176C747.587 29.8236 746.114 25.9553 744.667 21.7126C743.244 17.4699 742.408 14.9118 742.159 14.0383L740.998 17.7819C739.376 24.0211 737.704 29.1997 735.982 33.3176L715.954 80.4863H768.738ZM825.789 131.586V3.55637H833.651V124.099H900.286V131.586H825.789ZM956.814 135.704C950.824 135.704 944.709 134.456 938.47 131.96C932.231 129.464 926.778 125.97 922.111 121.478C917.419 116.986 914.2 111.87 912.453 106.13L919.752 103.322C922.498 110.934 927.427 116.986 934.539 121.478C941.652 125.97 949.077 128.217 956.814 128.217C962.928 128.217 968.506 126.881 973.547 124.211C978.613 121.516 982.619 117.797 985.564 113.055C988.484 108.313 989.944 103.01 989.944 97.1451C989.944 91.1554 987.885 86.0642 983.767 81.8714C979.649 77.7036 972.911 72.8744 963.552 67.3839L953.819 61.9557C946.956 58.337 941.615 55.2423 937.796 52.6717C934.003 50.1261 930.921 47.0689 928.55 43.5C926.179 39.9561 924.993 35.6261 924.993 30.5099C924.993 24.645 926.491 19.429 929.486 14.8619C932.481 10.3197 936.573 6.83822 941.765 4.41739C946.931 1.9716 952.633 0.748712 958.873 0.748712C966.734 0.748712 973.348 2.62049 978.713 6.36403C984.079 10.1076 986.824 15.0366 986.949 21.1511L978.713 20.7767C978.339 16.6588 976.055 13.5392 971.863 11.4178C967.695 9.29647 963.178 8.23581 958.311 8.23581C953.819 8.23581 949.638 9.19665 945.77 11.1183C941.902 13.065 938.782 15.7229 936.411 19.0921C934.04 22.4613 932.855 26.0801 932.855 29.9484C932.855 35.9381 935.126 40.8296 939.668 44.6231C944.235 48.4415 950.512 52.3473 958.498 56.3404C961.743 57.8378 964.238 59.1481 965.985 60.2711C977.216 67.0095 985.389 73.0865 990.505 78.5022C995.622 83.9428 998.18 90.2195 998.18 97.3322C998.18 104.819 996.271 111.495 992.452 117.36C988.659 123.225 983.605 127.742 977.291 130.912C971.002 134.106 964.176 135.704 956.814 135.704Z" fill="#374151"/>
</svg>
