<svg width="331" height="331" viewBox="0 0 331 331" fill="none" xmlns="http://www.w3.org/2000/svg">
<g clip-path="url(#clip0_2419_3971)">
<path d="M0.185059 165.209C0.185059 73.9653 74.1529 0 165.394 0C256.637 0 330.602 73.9678 330.602 165.209C330.602 256.452 256.634 330.417 165.394 330.417C74.1503 330.417 0.185059 256.449 0.185059 165.209ZM165.394 318.179C249.878 318.179 318.364 249.691 318.364 165.209C318.364 80.724 249.876 12.238 165.394 12.238C80.9091 12.238 12.423 80.7266 12.423 165.209C12.423 249.693 80.9116 318.179 165.394 318.179Z" fill="#374151"/>
<path d="M165.394 328.766C255.724 328.766 328.951 255.539 328.951 165.209C328.951 74.879 255.724 1.6521 165.394 1.6521C75.0643 1.6521 1.8374 74.879 1.8374 165.209C1.8374 255.539 75.0643 328.766 165.394 328.766Z" fill="#374151"/>
<g clip-path="url(#clip1_2419_3971)">
<g clip-path="url(#clip2_2419_3971)">
<path d="M208.743 105.317C188.82 102.587 168.905 109.919 155.465 124.924C147.418 133.912 142.298 145.006 140.651 157.009C139.643 164.375 139.979 171.749 141.655 178.927C143.27 185.854 146.08 192.404 150.007 198.383C150.205 198.679 150.416 198.964 150.619 199.259C139.643 205.145 126.734 205.701 112.213 200.88C111.777 200.692 110.926 200.346 109.832 199.916C114.391 195.581 120.534 188.215 120.534 179.906C120.534 179.53 120.523 179.146 120.497 178.762C120 171.569 114.925 165.409 105.412 160.461C104.056 159.754 102.382 160.279 101.677 161.637C101.466 162.046 101.363 162.486 101.363 162.912C101.363 163.916 101.908 164.879 102.855 165.371C110.533 169.368 114.61 173.998 114.97 179.134C114.987 179.4 114.997 179.661 114.997 179.925C114.997 187.458 107.619 194.657 103.905 197.806C95.0684 194.938 81.7406 191.904 74.6165 196.818C72.2683 198.431 69.5288 201.661 69.8078 207.863L69.8155 208.053L69.8504 208.235C70.1507 209.895 71.6445 213.106 75.3295 214.594C81.6747 217.157 91.6468 213.596 104.973 204.021C106.85 204.686 108.646 205.37 110.186 206.038L110.297 206.081L110.413 206.121C126.788 211.567 141.434 210.754 153.969 203.738C163.585 215.355 177.25 223.033 192.344 225.099C225.368 229.621 255.916 206.431 260.438 173.405C264.954 140.385 241.767 109.837 208.743 105.317ZM77.5034 209.498C75.8991 208.894 75.4419 207.7 75.3334 207.328C75.3295 207.212 75.3257 207.094 75.3257 206.978C75.3257 204.339 76.1258 202.498 77.7552 201.373C81.696 198.656 90.2092 199.732 98.2594 201.911C85.0556 210.705 79.3885 210.205 77.5034 209.498ZM207.989 110.804C208.708 110.903 209.404 111.058 210.109 111.184C204.88 113.404 198.624 115.32 193.081 116.303C187.216 117.345 181.312 116.994 175.841 116.19C185.629 111.246 196.804 109.272 207.989 110.804ZM167.731 121.212C167.818 121.237 167.901 121.276 167.992 121.294C175.698 122.874 184.839 124.266 194.196 122.603C202.638 121.106 212.269 117.767 218.732 114.1C218.951 113.978 219.145 113.823 219.323 113.656C221.059 114.292 222.758 114.979 224.401 115.772C217.097 122.092 207.131 127.614 194.867 129.797C183.283 131.857 173.77 129.584 163.234 124.948C164.673 123.618 166.175 122.375 167.731 121.212ZM158.774 129.594C158.869 129.65 158.958 129.714 159.061 129.76C171.305 135.369 182.612 138.167 195.932 135.801C209.805 133.335 221.1 126.982 229.326 119.594C229.563 119.377 229.751 119.124 229.91 118.858C231.246 119.711 232.562 120.598 233.819 121.559C223.45 132.103 214.509 137.56 200.129 140.118C182.124 143.317 166.623 141.422 155.848 133.348C156.769 132.06 157.747 130.81 158.774 129.594ZM146 159.095C155.808 159.533 165.964 163.394 175.149 170.09C174.595 171.654 173.964 173.181 173.268 174.676C165.045 168.232 155.674 164.133 145.71 162.623C145.772 161.447 145.869 160.271 146 159.095ZM146.886 153.603C147.234 151.989 147.676 150.402 148.164 148.834C159.977 150.702 169.292 153.922 177.786 159.291C177.544 161.039 177.219 162.767 176.808 164.46C167.367 157.968 156.999 154.192 146.886 153.603ZM161.178 142.745C163.06 143.553 165.024 144.231 167.057 144.808C167.21 146.012 167.27 146.984 167.274 147.984C165.365 147.275 163.401 146.632 161.374 146.05C161.329 144.888 161.275 143.826 161.178 142.745ZM172.758 150.284C172.819 148.807 172.842 147.538 172.747 146.087C174.417 146.378 176.12 146.626 177.873 146.787C178.135 149.032 178.257 151.101 178.245 153.14C176.465 152.109 174.636 151.156 172.758 150.284ZM183.469 147.085C185.335 147.11 187.229 147.083 189.163 146.971C189.595 151.669 189.175 155.457 188.535 160.169L188.516 160.248C186.916 158.94 185.296 157.716 183.649 156.571C183.878 153.455 183.814 150.427 183.469 147.085ZM194.677 146.488C196.161 146.316 197.655 146.124 199.168 145.884C199.772 151.562 199.743 157.179 199.001 162.594C198.711 164.733 198.283 166.859 197.794 168.963C197.027 168.13 196.27 167.298 195.46 166.496C194.768 165.809 194.071 165.158 193.379 164.503L194.018 160.918C194.696 156.003 195.157 151.748 194.677 146.488ZM204.63 144.857C206.048 144.539 207.433 144.198 208.766 143.82C210.665 151.989 210.979 157.603 209.954 165.09C209.268 170.114 207.985 175.015 206.158 179.721C204.928 177.805 203.638 175.914 202.212 174.089C203.221 170.592 203.99 166.987 204.49 163.348C205.31 157.346 205.333 151.132 204.63 144.857ZM214.075 142.206C214.067 142.154 214.04 142.108 214.028 142.061C215.648 141.435 217.212 140.757 218.721 140.005C221.238 149.518 222.691 159.547 221.443 168.577C220.265 177.098 217.004 184.991 212.728 192.454C211.86 190.213 210.831 187.961 209.636 185.673C212.531 179.382 214.499 172.716 215.441 165.838C216.568 157.596 216.196 151.192 214.075 142.206ZM224.307 137.157C224.279 137.057 224.235 136.966 224.2 136.873C225.101 136.286 225.982 135.644 226.868 135.001C231.93 148.402 234.868 159.76 233.376 170.148C231.518 183.1 225.335 193.83 215.927 204.622C215.648 202.676 215.274 200.758 214.79 198.86C220.393 189.895 226.122 179.456 227.507 169.412C228.923 159.181 227.24 147.825 224.307 137.157ZM216.493 213.115C228.836 199.947 236.859 187.161 239.138 171.294C240.852 159.363 237.466 146.457 231.593 131.25C232.122 130.791 232.661 130.285 233.194 129.803C242.211 142.067 246.529 158.559 244.493 173.456C241.972 191.858 228.377 205.844 216.479 213.722C216.485 213.52 216.493 213.319 216.493 213.115ZM155.254 139.635C155.24 139.85 155.242 140.069 155.281 140.29C155.567 141.968 155.684 143.222 155.765 144.64C153.942 144.237 152.074 143.865 150.137 143.539C150.947 141.652 151.828 139.798 152.843 138.01C153.622 138.583 154.43 139.12 155.254 139.635ZM145.708 168.248C154.729 169.765 163.201 173.663 170.637 179.694C169.287 181.961 167.773 184.125 166.109 186.177C160.186 181.386 153.593 177.778 146.62 175.552C146.155 173.138 145.839 170.701 145.708 168.248ZM155.321 196.325C155.093 195.996 154.856 195.674 154.636 195.337C151.902 191.18 149.778 186.714 148.269 182.025C153.277 184.009 158.04 186.793 162.409 190.294C160.235 192.48 157.871 194.508 155.321 196.325ZM158.689 200.729C161.535 198.689 164.16 196.413 166.578 193.958C166.743 194.117 166.917 194.264 167.082 194.425C172.47 199.755 176.409 206.79 179.061 215.727C171.234 212.389 164.247 207.278 158.689 200.729ZM185.429 217.996C182.568 206.29 177.811 197.257 170.978 190.488C170.751 190.265 170.509 190.064 170.28 189.841C171.943 187.801 173.471 185.66 174.853 183.426C174.944 183.515 175.045 183.592 175.136 183.68C184.056 192.516 190.552 206.414 192.092 219.453C189.826 219.1 187.607 218.616 185.429 217.996ZM197.723 220.042C196.33 205.313 189.231 189.849 179.026 179.743C178.565 179.287 178.092 178.85 177.622 178.412C178.379 176.875 179.071 175.304 179.695 173.704C180.906 174.752 182.095 175.833 183.26 176.978C195.274 188.87 202.46 205.447 202.138 220.081C200.679 220.129 199.207 220.121 197.723 220.042ZM187.154 173.047C185.356 171.272 183.494 169.616 181.588 168.06C182.072 166.326 182.461 164.559 182.798 162.776C185.753 165.022 188.65 167.548 191.565 170.431C196.134 174.957 200.001 179.917 203.051 185.177C209.665 196.595 211.822 206.201 210.653 219.162C209.665 219.348 208.675 219.513 207.668 219.647C207.815 203.674 200.057 185.815 187.154 173.047ZM254.945 172.657C252.396 191.29 240.721 206.468 225.054 214.321C236.361 205.352 247.601 191.586 249.978 174.209C252.237 157.702 247.355 139.415 237.222 125.965C237.501 125.688 237.77 125.438 238.049 125.155C250.582 136.921 257.451 154.364 254.945 172.657Z" fill="#8DBDFF"/>
</g>
</g>
</g>
<defs>
<clipPath id="clip0_2419_3971">
<rect width="330.418" height="330.418" fill="white" transform="translate(0.185059)"/>
</clipPath>
<clipPath id="clip1_2419_3971">
<rect width="191.212" height="120.907" fill="white" transform="translate(69.7881 104.756)"/>
</clipPath>
<clipPath id="clip2_2419_3971">
<rect width="191.212" height="120.907" fill="white" transform="translate(69.7881 104.756)"/>
</clipPath>
</defs>
</svg>
