<svg width="134" height="85" viewBox="0 0 134 85" fill="none" xmlns="http://www.w3.org/2000/svg">
<path d="M97.2684 0.393138C83.3224 -1.51778 69.3818 3.61416 59.9737 14.1181C54.3413 20.4096 50.7568 28.1753 49.604 36.5771C48.8988 41.7335 49.1334 46.8952 50.3065 51.92C51.4376 56.7685 53.4041 61.3539 56.1532 65.5392C56.2915 65.7467 56.4394 65.9461 56.5818 66.1522C48.8988 70.2724 39.8623 70.6616 29.6974 67.2874C29.3922 67.1558 28.7969 66.913 28.0306 66.612C31.2218 63.5781 35.5224 58.4218 35.5224 52.6049C35.5224 52.3418 35.5142 52.0733 35.4966 51.8048C35.148 46.7691 31.5961 42.4577 24.9371 38.9939C23.9877 38.4989 22.8159 38.8664 22.3223 39.8171C22.1744 40.1033 22.1026 40.4111 22.1026 40.7095C22.1026 41.412 22.4837 42.0861 23.1468 42.4306C28.5215 45.2284 31.375 48.4698 31.6273 52.0651C31.6395 52.2509 31.6463 52.434 31.6463 52.6185C31.6463 57.8915 26.4818 62.9312 23.8819 65.135C17.6962 63.1278 8.36675 61.004 3.37992 64.4434C1.73618 65.5731 -0.181513 67.8339 0.0137832 72.1752L0.019208 72.3081L0.04362 72.4356C0.253834 73.5979 1.29948 75.8451 3.87901 76.8867C8.32064 78.681 15.3011 76.1882 24.6292 69.4858C25.9434 69.951 27.2006 70.4297 28.2788 70.8976L28.3561 70.9275L28.4375 70.9559C39.9002 74.7683 50.1519 74.1987 58.9267 69.2878C65.6576 77.4197 75.223 82.7944 85.7893 84.2401C108.906 87.4055 130.29 71.1729 133.455 48.0548C136.616 24.9407 120.385 3.5572 97.2684 0.393138ZM5.40069 73.3198C4.27774 72.8967 3.95767 72.0613 3.88172 71.8009C3.87901 71.7195 3.8763 71.6368 3.8763 71.5554C3.8763 69.7082 4.43642 68.4198 5.577 67.6319C8.33555 65.7304 14.2948 66.4831 19.9299 68.0089C10.6872 74.1648 6.7203 73.8149 5.40069 73.3198ZM96.7408 4.23395C97.244 4.30312 97.7309 4.41162 98.2245 4.49977C94.5641 6.054 90.1848 7.39531 86.3047 8.08291C82.1994 8.81256 78.067 8.56708 74.237 8.00425C81.0887 4.54317 88.9113 3.16118 96.7408 4.23395ZM68.5599 11.5196C68.6209 11.5372 68.6792 11.5643 68.743 11.5765C74.1367 12.6832 80.5353 13.657 87.0859 12.4933C92.9949 11.445 99.7367 9.10821 104.261 6.54088C104.414 6.45544 104.55 6.34695 104.675 6.23031C105.89 6.67515 107.079 7.15661 108.229 7.7113C103.116 12.1353 96.14 16.0005 87.5551 17.529C79.4463 18.9706 72.7872 17.3798 65.4121 14.1344C66.4198 13.204 67.4709 12.3333 68.5599 11.5196ZM62.2901 17.3866C62.3565 17.4259 62.4189 17.4707 62.4908 17.5032C71.0621 21.4295 78.977 23.3879 88.301 21.7319C98.0116 20.0054 105.918 15.5584 111.677 10.3871C111.842 10.2352 111.974 10.0576 112.085 9.87176C113.021 10.4685 113.942 11.0897 114.822 11.7623C107.563 19.1429 101.304 22.9634 91.2386 24.7536C78.6353 26.9927 67.7841 25.6663 60.2422 20.0149C60.8864 19.1131 61.5713 18.2383 62.2901 17.3866ZM53.3485 38.0378C60.2137 38.3443 67.323 41.0472 73.7529 45.7343C73.365 46.8288 72.9229 47.8975 72.436 48.9445C66.6802 44.4337 60.1201 41.5639 53.1451 40.5074C53.1885 39.6842 53.2563 38.861 53.3485 38.0378ZM53.9683 34.1929C54.2124 33.0631 54.5217 31.9524 54.8634 30.8552C63.1323 32.1626 69.653 34.4166 75.5987 38.1747C75.4292 39.398 75.2013 40.6078 74.9138 41.7931C68.3049 37.2484 61.0478 34.6052 53.9683 34.1929ZM63.9732 26.5926C65.2901 27.1582 66.6653 27.6328 68.0879 28.037C68.1951 28.8792 68.2371 29.56 68.2398 30.2598C66.904 29.7635 65.5287 29.3132 64.1101 28.9063C64.0789 28.0926 64.041 27.3494 63.9732 26.5926ZM72.0793 31.8697C72.1213 30.8362 72.1376 29.9479 72.0712 28.9321C73.2402 29.1355 74.4323 29.3091 75.6597 29.4217C75.8428 30.9935 75.9282 32.442 75.9201 33.8687C74.6737 33.1472 73.3935 32.48 72.0793 31.8697ZM79.5765 29.6305C80.8825 29.6482 82.2089 29.6292 83.5624 29.5505C83.8649 32.8394 83.5706 35.4908 83.123 38.7891L83.1094 38.8447C81.9892 37.9293 80.8554 37.0721 79.7026 36.2706C79.8626 34.0898 79.8179 31.97 79.5765 29.6305ZM87.4222 29.2128C88.4611 29.0921 89.5067 28.9579 90.5659 28.7897C90.9891 32.7648 90.9687 36.6965 90.4493 40.4871C90.2459 41.9844 89.9461 43.4721 89.6044 44.945C89.0673 44.3618 88.537 43.78 87.9701 43.2185C87.486 42.7371 86.9977 42.2814 86.5135 41.823L86.9611 39.314C87.4358 35.8732 87.7586 32.895 87.4222 29.2128ZM94.3891 28.0709C95.3819 27.8485 96.3516 27.6098 97.2847 27.3453C98.6137 33.0631 98.8335 36.9935 98.116 42.2339C97.6359 45.7506 96.7381 49.1818 95.4592 52.4761C94.598 51.1348 93.6947 49.8111 92.6966 48.5335C93.4031 46.0856 93.9416 43.5616 94.2915 41.0147C94.8652 36.8131 94.8814 32.4637 94.3891 28.0709ZM101.001 26.2156C100.995 26.179 100.976 26.1464 100.968 26.1139C102.102 25.6758 103.196 25.2011 104.253 24.6749C106.015 31.334 107.032 38.3538 106.158 44.6751C105.334 50.6398 103.051 56.165 100.058 61.3892C99.4505 59.82 98.7304 58.2441 97.8936 56.6424C99.9198 52.2387 101.298 47.572 101.957 42.7574C102.746 36.988 102.486 32.5057 101.001 26.2156ZM108.163 22.6813C108.144 22.6107 108.113 22.547 108.088 22.4819C108.719 22.071 109.336 21.6221 109.956 21.1718C113.5 30.5528 115.556 38.5029 114.511 45.775C113.211 54.8413 108.883 62.3521 102.297 69.9062C102.102 68.5446 101.84 67.2019 101.501 65.8728C105.423 59.5976 109.434 52.2903 110.403 45.2596C111.395 38.0974 110.216 30.1486 108.163 22.6813ZM102.693 75.8519C111.334 66.6337 116.95 57.684 118.545 46.5765C119.745 38.2249 117.374 29.1911 113.264 18.5462C113.634 18.2247 114.011 17.8708 114.384 17.5331C120.696 26.1179 123.719 37.6621 122.293 48.0901C120.529 60.9714 111.012 70.762 102.684 76.2764C102.688 76.1354 102.693 75.9943 102.693 75.8519ZM59.8258 24.4159C59.8163 24.5664 59.8177 24.7197 59.8448 24.8743C60.0455 26.0488 60.1269 26.9262 60.1839 27.919C58.9077 27.6369 57.6003 27.3765 56.2441 27.1487C56.811 25.8277 57.428 24.5298 58.1387 23.278C58.6839 23.6794 59.2494 24.0551 59.8258 24.4159ZM53.1437 44.4445C59.4583 45.5065 65.3891 48.2352 70.5942 52.4571C69.6489 54.0439 68.5897 55.5588 67.4247 56.995C63.2788 53.6411 58.6636 51.1158 53.7825 49.5575C53.457 47.8676 53.236 46.1615 53.1437 44.4445ZM59.8733 64.0989C59.7133 63.8683 59.5478 63.6432 59.3932 63.4072C57.4796 60.4968 55.9932 57.3707 54.9367 54.0886C58.4425 55.4774 61.7761 57.4263 64.8344 59.877C63.3127 61.4068 61.6581 62.8268 59.8733 64.0989ZM62.2304 67.1816C64.2227 65.7535 66.0604 64.1599 67.7529 62.4416C67.8682 62.5528 67.9903 62.6559 68.1056 62.7684C71.8772 66.4994 74.6344 71.4238 76.4911 77.6801C71.0119 75.3433 66.1214 71.7656 62.2304 67.1816ZM80.949 79.2682C78.9458 71.0739 75.6163 64.7512 70.8329 60.0126C70.6742 59.8566 70.5047 59.7156 70.3447 59.5596C71.5083 58.1315 72.5784 56.6329 73.5454 55.0692C73.6091 55.1316 73.6796 55.1858 73.7434 55.2468C79.9874 61.4326 84.5348 71.1607 85.613 80.2881C84.0262 80.0413 82.4734 79.7022 80.949 79.2682ZM89.5542 80.7004C88.5791 70.3904 83.6099 59.565 76.4667 52.491C76.1439 52.1723 75.813 51.8658 75.4834 51.5593C76.0137 50.4838 76.4979 49.3839 76.9346 48.2637C77.7822 48.9974 78.6149 49.7541 79.43 50.5557C87.8399 58.8802 92.8701 70.484 92.645 80.7275C91.6238 80.7614 90.5931 80.756 89.5542 80.7004ZM82.156 47.8039C80.8974 46.5616 79.5941 45.402 78.2596 44.313C78.5986 43.0992 78.8712 41.8623 79.1072 40.6146C81.1755 42.1864 83.203 43.9549 85.2441 45.973C88.4421 49.1411 91.1491 52.6131 93.2838 56.2952C97.9139 64.2874 99.4234 71.0116 98.6056 80.0847C97.9139 80.2149 97.2209 80.3301 96.5157 80.4237C96.6188 69.243 91.1884 56.7414 82.156 47.8039ZM129.61 47.5313C127.825 60.5741 119.653 71.1987 108.686 76.6955C116.601 70.4175 124.469 60.7816 126.133 48.6176C127.714 37.0626 124.296 24.2613 117.203 14.8464C117.399 14.6524 117.587 14.4775 117.783 14.2795C126.556 22.5158 131.364 34.7259 129.61 47.5313Z" fill="#8DBDFF"/>
</svg>
